Coordinates
version=1
nRows=26
nColumns=24
inDegrees=yes

Units are S.I. units (second, meters, Newtons, ...)
Angles are in degrees.

endheader
time	pelvis_tilt	pelvis_list	pelvis_rotation	pelvis_tx	pelvis_ty	pelvis_tz	hip_flexion_r	hip_adduction_r	hip_rotation_r	knee_angle_r	ankle_angle_r	subtalar_angle_r	mtp_angle_r	hip_flexion_l	hip_adduction_l	hip_rotation_l	knee_angle_l	ankle_angle_l	subtalar_angle_l	mtp_angle_l	lumbar_extension	lumbar_bending	lumbar_rotation
      5.03500000	    -15.03764797	     10.96666097	     -6.80646293	      0.64361727	     -0.02217907	     -0.01022450	     20.06090696	    -16.45477272	     -1.02394168	    -58.91524048	    -26.33100335	     10.86548366	     41.59843799	     28.57139228	      9.47796929	    -15.76059748	    -14.09561877	     -7.88034200	      4.01030680	      7.44911261	     16.41266732	    -11.80899867	      6.45892681
      5.04000000	    -14.88835886	     10.89751329	     -6.69654158	      0.64973545	     -0.02114269	     -0.01095098	     20.65498110	    -16.36670214	     -0.82860285	    -59.89903396	    -25.79805449	     11.00772705	     42.05480266	     27.81803918	      9.64866577	    -15.59468584	    -13.71511264	     -7.64768022	      4.20779314	      7.53285644	     16.25653059	    -11.77358080	      6.12444680
      5.04500000	    -14.72911981	     10.78726202	     -6.57889067	      0.65583116	     -0.02006650	     -0.01168533	     21.20903324	    -16.23258233	     -0.65468942	    -60.78932734	    -25.34776534	     11.24853258	     42.71327269	     27.04934489	      9.78163290	    -15.37474277	    -13.34021800	     -7.42008266	      4.38640601	      7.58134132	     16.08516051	    -11.69963068	      5.74940133
      5.05000000	    -14.52371513	     10.63333272	     -6.48120489	      0.66191741	     -0.01890775	     -0.01242220	     21.68215491	    -16.04720888	     -0.51672223	    -61.55026361	    -25.04445382	     11.27439107	     44.05439386	     26.22123574	      9.87765076	    -15.09805623	    -12.96281120	     -7.17979984	      4.46138415	      7.51390810	     15.86243934	    -11.57290382	      5.39157340
      5.05500000	    -14.45336021	     10.47213095	     -6.30512215	      0.66797234	     -0.01795060	     -0.01319686	     22.28990569	    -15.84959306	     -0.41274813	    -62.34132934	    -24.62706767	     11.67688830	     44.51753458	     25.55870153	      9.95258347	    -14.82207389	    -12.62625537	     -6.95824412	      4.64837391	      7.57853992	     15.77621403	    -11.44780667	      4.96909744
      5.06000000	    -14.33051209	     10.29081777	     -6.13795841	      0.67400553	     -0.01693010	     -0.01398045	     22.81712714	    -15.63164953	     -0.31525996	    -63.04128089	    -24.25405646	     12.12423241	     45.17273379	     24.83242396	     10.01521174	    -14.50557051	    -12.27957688	     -6.74728182	      4.76688084	      7.57716165	     15.63164895	    -11.30273931	      4.53843703
      5.06500000	    -14.11728161	     10.10537788	     -5.97392609	      0.68006840	     -0.01581660	     -0.01481084	     23.21074824	    -15.43285733	     -0.28267955	    -63.61244445	    -23.98054064	     12.28334977	     46.61174307	     23.98920411	     10.10239775	    -14.09155590	    -11.90655726	     -6.53323435	      4.73562248	      7.37996258	     15.39479088	    -11.15790904	      4.10620900
      5.07000000	    -14.02840934	      9.90737253	     -5.77808444	      0.68605601	     -0.01488661	     -0.01560845	     23.74185263	    -15.19394213	     -0.23852939	    -64.19030827	    -23.63474704	     12.67405072	     47.47442643	     23.30500148	     10.13998012	    -13.75193912	    -11.57436623	     -6.31739812	      4.84485809	      7.33878501	     15.28584601	    -10.99660388	      3.65931878
      5.07500000	    -13.95496025	      9.67829049	     -5.60309544	      0.69201367	     -0.01397600	     -0.01635392	     24.28519276	    -14.89469925	     -0.17212435	    -64.73529529	    -23.27009214	     13.17143686	     47.88627858	     22.63565588	     10.12464992	    -13.42416496	    -11.23882289	     -6.11635191	      4.95354812	      7.35678174	     15.19647388	    -10.79418683	      3.23378333
      5.08000000	    -13.77160831	      9.46803720	     -5.38019588	      0.69800625	     -0.01298548	     -0.01722487	     24.66135909	    -14.67250071	     -0.20677175	    -65.17619137	    -22.90742510	     13.48779904	     48.76627878	     21.82431136	     10.18202127	    -12.95251054	    -10.86469150	     -5.94466027	      4.88482802	      7.17796009	     14.98275509	    -10.63378024	      2.74767361
      5.08500000	    -13.71495953	      9.24453123	     -5.18326357	      0.70391029	     -0.01218794	     -0.01798128	     25.20339530	    -14.38369584	     -0.18060497	    -65.62542778	    -22.51696806	     13.94102645	     49.15830477	     21.18335256	     10.16146672	    -12.62480776	    -10.54234532	     -5.74363076	      5.00593766	      7.19142968	     14.91093556	    -10.44093358	      2.31202500
      5.09000000	    -13.54724832	      9.02390440	     -4.94540492	      0.70982611	     -0.01129760	     -0.01883980	     25.58030252	    -14.14781082	     -0.25325866	    -65.98126098	    -22.12175983	     14.18736705	     49.85480840	     20.39883223	     10.18923183	    -12.14799239	    -10.18274745	     -5.57250630	      4.94819247	      7.02883865	     14.70858870	    -10.27152044	      1.82318556
      5.09500000	    -13.49479398	      8.79833888	     -4.72830293	      0.71569288	     -0.01057772	     -0.01962760	     26.09996158	    -13.86354155	     -0.26788568	    -66.32503397	    -21.70075772	     14.55068838	     50.16610026	     19.76130118	     10.16137160	    -11.82234301	     -9.85006413	     -5.38625728	      5.06276696	      7.03590926	     14.64212624	    -10.07700583	      1.38140662
      5.10000000	    -13.39364182	      8.56841157	     -4.47794308	      0.72154962	     -0.00984378	     -0.02046568	     26.53786341	    -13.60510831	     -0.35065486	    -66.60750729	    -21.25944434	     14.81324749	     50.47738300	     19.06565330	     10.14491690	    -11.42644116	     -9.51103778	     -5.21531871	      5.12311744	      7.00271969	     14.51441820	     -9.89261391	      0.89535845
      5.10500000	    -13.28709033	      8.33676223	     -4.22833592	      0.72738034	     -0.00914160	     -0.02131154	     26.96151012	    -13.34590348	     -0.44864795	    -66.83982284	    -20.80677990	     14.98472157	     50.74038178	     18.36461404	     10.12032988	    -11.02670888	     -9.16885482	     -5.04935016	      5.16861892	      6.95991720	     14.38024190	     -9.70414265	      0.42142858
      5.11000000	    -13.13939284	      8.11231339	     -3.98373553	      0.73319835	     -0.00843169	     -0.02216879	     27.33001095	    -13.10140548	     -0.56820820	    -67.01570631	    -20.34163639	     15.01239814	     51.00642973	     17.61228671	     10.10495751	    -10.60293536	     -8.81053350	     -4.89733774	      5.14426934	      6.84931539	     14.20337526	     -9.52067343	     -0.04420430
      5.11500000	    -13.08256908	      7.87912955	     -3.72264585	      0.73896625	     -0.00786368	     -0.02301718	     27.79393456	    -12.83722581	     -0.67871067	    -67.15619595	    -19.86285585	     15.11559169	     51.11664244	     16.98032405	     10.05360028	    -10.25093289	     -8.48447647	     -4.72766200	      5.25902605	      6.86102173	     14.12319213	     -9.32524746	     -0.50597233
      5.12000000	    -12.98647495	      7.64081887	     -3.44834744	      0.74471026	     -0.00728254	     -0.02389292	     28.19597009	    -12.58517617	     -0.83462029	    -67.24099864	    -19.36827357	     15.09375986	     51.14508419	     16.30273168	     10.00107267	     -9.86516317	     -8.15033436	     -4.57189699	      5.33318671	      6.85282661	     13.99632134	     -9.12861558	     -0.98673961
      5.12500000	    -12.88884658	      7.40425153	     -3.17897259	      0.75042777	     -0.00673765	     -0.02477295	     28.58893203	    -12.33482574	     -0.99234326	    -67.27528665	    -18.85875704	     15.02594116	     51.09815669	     15.62704454	      9.94177798	     -9.48617386	     -7.81635596	     -4.42214305	      5.39370529	      6.84135703	     13.86929516	     -8.92894955	     -1.45198867
      5.13000000	    -12.79668200	      7.16745009	     -2.90618159	      0.75611287	     -0.00623638	     -0.02565298	     28.97770353	    -12.08712161	     -1.16165057	    -67.25964557	    -18.33499962	     14.91379916	     50.97551840	     14.96402336	      9.87371749	     -9.11049739	     -7.48876653	     -4.27306101	      5.45530616	      6.83485406	     13.74753726	     -8.72692689	     -1.91207651
      5.13500000	    -12.70706653	      6.93019303	     -2.63150831	      0.76176599	     -0.00577336	     -0.02653810	     29.35850334	    -11.84241207	     -1.34048827	    -67.19230058	    -17.79941547	     14.76455139	     50.77556488	     14.31088146	      9.79718296	     -8.73867207	     -7.16824643	     -4.12618650	      5.51413239	      6.82979816	     13.62888410	     -8.52194904	     -2.36574243
      5.14000000	    -12.61695400	      6.69283319	     -2.35496790	      0.76738973	     -0.00534420	     -0.02743092	     29.72700093	    -11.60297443	     -1.53070789	    -67.07246512	    -17.25377819	     14.58894323	     50.48645398	     13.66441890	      9.71348930	     -8.36947402	     -6.85522641	     -3.98176818	      5.56584196	      6.82187850	     13.50946197	     -8.31367393	     -2.81659378
      5.14500000	    -12.53228365	      6.45720049	     -2.07921662	      0.77298206	     -0.00496000	     -0.02832002	     30.09195027	    -11.36764448	     -1.72610483	    -66.90201718	    -16.70156354	     14.39466188	     50.11700826	     13.03314873	      9.62237997	     -8.00506849	     -6.55332548	     -3.83525391	      5.61602689	      6.81459354	     13.39743368	     -8.10465126	     -3.25586159
      5.15000000	    -12.45005345	      6.22620357	     -1.80484194	      0.77853312	     -0.00461959	     -0.02920901	     30.45173442	    -11.14067314	     -1.92555822	    -66.68412761	    -16.14417638	     14.19031338	     49.65809179	     12.41478098	      9.52792668	     -7.64821669	     -6.26211540	     -3.68938828	      5.66337156	      6.80482559	     13.28894953	     -7.89500036	     -3.68559159
      5.15500000	    -12.38121936	      6.00015158	     -1.53788552	      0.78405308	     -0.00433037	     -0.03008169	     30.81863700	    -10.91840718	     -2.12465941	    -66.41366951	    -15.58983281	     13.97230177	     49.15013149	     11.82185809	      9.42725121	     -7.30278402	     -5.98438514	     -3.53779279	      5.71666646	      6.80099315	     13.19462622	     -7.68839910	     -4.09344098
      5.16000000	    -12.23725107	      5.82952812	     -1.28645998	      0.78953365	     -0.00406152	     -0.03094138	     31.10997230	    -10.76046224	     -2.29503080	    -66.14301770	    -14.94383354	     13.92021322	     48.09934248	     11.14966319	      9.38328166	     -6.94895645	     -5.70160937	     -3.39950255	      5.71082839	      6.74954817	     13.02316286	     -7.53364702	     -4.46145097
